<svg width="24" height="24" viewBox="0 0 24 24" fill="none" xmlns="http://www.w3.org/2000/svg">
<mask id="mask0_32_449" style="mask-type:alpha" maskUnits="userSpaceOnUse" x="0" y="0" width="24" height="24">
<rect width="24" height="24" fill="#D9D9D9"/>
</mask>
<g mask="url(#mask0_32_449)">
<path d="M4.07175 20.2031C3.44208 20.2031 2.9055 19.9814 2.462 19.5379C2.0185 19.0944 1.79675 18.5578 1.79675 17.9281V6.07163C1.79675 5.44196 2.0185 4.90538 2.462 4.46188C2.9055 4.01838 3.44208 3.79663 4.07175 3.79663H19.9282C20.5579 3.79663 21.0945 4.01838 21.538 4.46188C21.9815 4.90538 22.2032 5.44196 22.2032 6.07163V17.9281C22.2032 18.5578 21.9815 19.0944 21.538 19.5379C21.0945 19.9814 20.5579 20.2031 19.9282 20.2031H4.07175ZM12 13.2569L4.07175 8.25688V17.9281H19.9282V8.25688L12 13.2569ZM12 11.0716L19.9282 6.07163H4.07175L12 11.0716ZM4.07175 8.25688V6.07163V17.9281V8.25688Z" fill="white"/>
</g>
</svg>
